<svg xmlns="http://www.w3.org/2000/svg" width="19" height="19" viewBox="0 0 19 19">
    <g fill="#FFF" fill-rule="evenodd">
        <path d="M16.23 12.538h-1.692v1.692c0 .34-.275.616-.615.616-.34 0-.616-.276-.616-.616v-1.692h-1.692c-.34 0-.615-.275-.615-.615 0-.34.275-.616.615-.616h1.692V9.615c0-.34.276-.615.616-.615.34 0 .615.275.615.615v1.692h1.692c.34 0 .616.276.616.616 0 .34-.276.615-.616.615z"/>
        <path fill-rule="nonzero" d="M15.242 15.828H3.758c-.323 0-.586-.263-.586-.586v-1.084c0-.674.288-1.314.791-1.756.592-.52 2.317-1.73 5.537-1.73 2.39 0 4.336-1.945 4.336-4.336C13.836 3.946 11.89 2 9.5 2 7.11 2 5.164 3.945 5.164 6.336c0 1.398.665 2.643 1.695 3.436-1.885.414-3.057 1.212-3.67 1.75C2.435 12.186 2 13.147 2 14.158v1.084C2 16.212 2.788 17 3.758 17h11.484c.97 0 1.758-.788 1.758-1.758-.956.39-1.542.586-1.758.586zM6.336 6.336c0-1.745 1.42-3.164 3.164-3.164 1.745 0 3.164 1.42 3.164 3.164 0 1.745-1.42 3.164-3.164 3.164-1.745 0-3.164-1.42-3.164-3.164z"/>
    </g>
</svg>
