<svg xmlns="http://www.w3.org/2000/svg" xmlns:xlink="http://www.w3.org/1999/xlink" width="22" height="22" viewBox="0 0 22 22">
    <defs>
        <path id="prefix__a" d="M0 0L14.253 0 14.253 16.21 0 16.21z"/>
        <path id="prefix__c" d="M0 0L6.484 0 6.484 6.484 0 6.484z"/>
    </defs>
    <g fill="none" fill-rule="evenodd">
        <g transform="translate(0 3.474)">
            <mask id="prefix__b" fill="#fff">
                <use xlink:href="#prefix__a"/>
            </mask>
            <path fill="#FFF" d="M7.126 0C4.94 0 3.168 1.772 3.168 3.96c0 2.187 1.772 3.958 3.958 3.958 2.188 0 3.96-1.771 3.96-3.958 0-2.188-1.772-3.96-3.96-3.96M0 13.835V12.67c0-.8.607-1.697 1.35-1.996 3.706-1.49 7.847-1.49 11.553 0 .742.299 1.35 1.196 1.35 1.996v1.166c0 1.312-1.064 2.375-2.375 2.375H2.376C1.064 16.21 0 15.147 0 13.835" mask="url(#prefix__b)"/>
        </g>
        <g transform="translate(12.737 5.79)">
            <mask id="prefix__d" fill="#fff">
                <use xlink:href="#prefix__c"/>
            </mask>
            <path fill="#FFF" d="M5.79 2.547H3.982c-.046 0-.093-.046-.093-.092V.695C3.89.278 3.613 0 3.242 0c-.37 0-.695.278-.695.695V2.5c0 .046-.046.093-.092.093H.695C.278 2.547 0 2.872 0 3.242s.324.695.695.695H2.5c.046 0 .093.046.093.092v1.807c-.047.324.278.648.648.648s.695-.324.695-.695V3.983c0-.046.046-.092.092-.092h1.807c.324 0 .648-.278.648-.649 0-.74-.695-.695-.695-.695" mask="url(#prefix__d)"/>
        </g>
    </g>
</svg>
