<svg xmlns="http://www.w3.org/2000/svg" width="17" height="20" viewBox="0 0 17 20">
    <g fill="#FFF">
        <path d="M15.243 5.677l-2.256-2.255c-.604-.593-1.572-.593-2.177 0L7 7.232v8.322c-.014.183-.04.365-.079.544l8.322-8.243c.593-.605.593-1.573 0-2.178zM6.222 1.555C6.222.696 5.525 0 4.666 0h-3.11C.695 0 0 .696 0 1.555v13.999c0 1.718 1.393 3.11 3.11 3.11 1.719 0 3.112-1.392 3.112-3.11V1.555zM3.11 16.332c-.43 0-.778-.349-.778-.778 0-.43.348-.778.778-.778.43 0 .777.348.777.778 0 .43-.348.778-.777.778z" transform="translate(.662 .662)"/>
    </g>
</svg>
