<svg xmlns="http://www.w3.org/2000/svg" xmlns:xlink="http://www.w3.org/1999/xlink" width="16" height="16" viewBox="0 0 16 16">
    <defs>
        <path id="prefix__a" d="M0 0.001L16 0.001 16 16 0 16z"/>
    </defs>
    <g fill="none" fill-rule="evenodd">
        <mask id="prefix__b" fill="#fff">
            <use xlink:href="#prefix__a"/>
        </mask>
        <path fill="#002664" d="M9.156 11.178L7.86 9.633l-1.545 1.296c-.48.402-1.196.34-1.598-.14-.402-.48-.34-1.196.14-1.598l1.545-1.296-1.297-1.546c-.402-.478-.34-1.196.14-1.598.479-.402 1.196-.339 1.598.14l1.296 1.546L9.685 5.14c.479-.402 1.196-.34 1.598.139.402.48.339 1.197-.14 1.599L9.598 8.174l1.296 1.546c.402.478.34 1.195-.14 1.597-.48.402-1.196.34-1.598-.14M8 .002C3.58 0 0 3.58 0 8c0 4.417 3.581 8 8 8 4.418 0 8-3.583 8-8 0-4.42-3.582-8-8-8" mask="url(#prefix__b)"/>
    </g>
</svg>
