<svg xmlns="http://www.w3.org/2000/svg" width="15" height="16" viewBox="0 0 15 16">
    <path fill="#8092B1" fill-rule="evenodd" d="M12.072.325h1.102c.608 0 1.101.47 1.101 1.052v9.816c-.307-.22-.688-.35-1.101-.35H3.262V.325h4.405v5.96c0 .248.262.418.504.326l1.699-.65 1.699.65c.241.092.503-.078.503-.326V.325zM9.951 5.242c-.016-.003-.032-.006-.048-.007L8.4 5.808 8.367.325h2.971l.035 5.483-1.422-.566zM.325 11.579V1.377C.325.796.818.325 1.426.325h1.102v10.518H2.16c-.72 0-1.37.282-1.836.736zm1.836-.035h11.013c.608 0 1.101.47 1.101 1.052v1.402c0 .581-.493 1.052-1.101 1.052H2.16c-1.014 0-1.836-.785-1.836-1.753 0-.968.822-1.753 1.836-1.753z"/>
</svg>
