<svg xmlns="http://www.w3.org/2000/svg" xmlns:xlink="http://www.w3.org/1999/xlink" width="20" height="17" viewBox="0 0 20 17">
    <defs>
        <path id="prefix__a" d="M0 0L14.482 0 14.482 16.47 0 16.47z"/>
        <path id="prefix__c" d="M0 0L7.059 0 7.059 7.059 0 7.059z"/>
    </defs>
    <g fill="none" fill-rule="evenodd">
        <mask id="prefix__b" fill="#fff">
            <use xlink:href="#prefix__a"/>
        </mask>
        <path fill="#002664" d="M7.24 0C5.02 0 3.219 1.8 3.219 4.023c0 2.222 1.802 4.022 4.023 4.022 2.222 0 4.022-1.8 4.022-4.022C11.263 1.801 9.463 0 7.241 0M0 14.057v-1.185c0-.812.617-1.724 1.371-2.028 3.766-1.514 7.973-1.514 11.74 0 .753.304 1.37 1.216 1.37 2.028v1.185c0 1.333-1.08 2.413-2.412 2.413H2.414C1.08 16.47 0 15.39 0 14.057" mask="url(#prefix__b)"/>
        <g transform="translate(12.941 3.53)">
            <mask id="prefix__d" fill="#fff">
                <use xlink:href="#prefix__c"/>
            </mask>
            <path fill="#002664" d="M4.428.25L2.94 1.738 1.452.25C1.12-.083.582-.083.25.25c-.332.332-.332.87 0 1.203l1.489 1.488L.25 4.428c-.332.332-.332.871 0 1.203.333.333.871.333 1.204.001l1.487-1.486 1.487 1.487c.333.333.872.333 1.205 0 .331-.332.331-.871-.002-1.203L4.145 2.942l1.487-1.487c.332-.332.332-.87 0-1.203C5.298-.081 4.76-.081 4.427.25" mask="url(#prefix__d)"/>
        </g>
    </g>
</svg>
