<svg xmlns="http://www.w3.org/2000/svg" width="17" height="17" viewBox="0 0 17 17">
    <path fill="#fff" fill-rule="evenodd" d="M10 0H3.4C1.5 0 0 1.487 0 3.321v6.64c0 1.834 1.5 3.32 3.4 3.32 0 1.834 1.4 3.32 3.3 3.32h6.6c1.9 0 3.3-1.486 3.3-3.32v-6.64c0-1.834-1.4-3.32-3.3-3.32C13.3 1.487 11.8 0 10 0zm3.3 4.981v4.98c0 1.834-1.5 3.32-3.3 3.32H5c0 .917.8 1.66 1.7 1.66h6.6c.9 0 1.7-.743 1.7-1.66v-6.64c0-.917-.8-1.66-1.7-1.66zM1.7 3.321c0-.917.7-1.66 1.7-1.66H10c.9 0 1.7.743 1.7 1.66v6.64c0 .917-.8 1.66-1.7 1.66H3.4c-1 0-1.7-.743-1.7-1.66v-6.64z"/>
</svg>
