<svg xmlns="http://www.w3.org/2000/svg" width="17" height="18" viewBox="0 0 17 18">
    <path fill="#7F8FA4" fill-rule="evenodd" d="M11.8.986c.7-.648 1.7-.648 2.4 0l1.9 1.97c.7.648.7 1.697 0 2.345L8 13.472c-.3.23-.5.387-.9.452l-2.4.501c-.6.11-1.1-.06-1.5-.453-.4-.393-.6-.957-.5-1.502L3.2 10c.1-.32.2-.613.5-.844l8.1-8.17zM4.7 11.035l.1-.439 1.7 1.757-.4.089-1.8.358.4-1.765zm3.1.252l-2-1.97 6-5.986L13 2.158l.8.798.4.375.8.798-1.2 1.172-6 5.986zM.9 15.443c-.5 0-.9.371-.9.829 0 .458.4.829.9.829h14.9c.4 0 .8-.371.8-.829 0-.458-.4-.829-.8-.829H.9z"/>
</svg>
