<svg xmlns="http://www.w3.org/2000/svg" width="19" height="19" viewBox="0 0 19 19">
    <path fill="#FFF" fill-rule="evenodd" d="M14.375 2.375H15.5c.621 0 1.125.481 1.125 1.074v10.028c-.313-.225-.703-.358-1.125-.358H5.375V2.375h4.5v6.088c0 .254.268.427.514.333l1.736-.663 1.736.663c.246.094.514-.08.514-.333V2.375zm-2.167 5.023c-.016-.004-.033-.006-.05-.008l-1.533.586-.035-5.601h3.035l.035 5.601-1.452-.578zM2.375 13.87V3.45c0-.593.504-1.074 1.125-1.074h1.125v10.744H4.25c-.735 0-1.399.288-1.875.752zm1.875-.036H15.5c.621 0 1.125.481 1.125 1.075v1.432c0 .594-.504 1.075-1.125 1.075H4.25c-1.036 0-1.875-.802-1.875-1.791 0-.989.84-1.79 1.875-1.79z"/>
</svg>
