<svg xmlns="http://www.w3.org/2000/svg" width="15" height="15" viewBox="0 0 15 15">
    <path fill="#002664" fill-rule="evenodd" d="M5.921 14.768c.502.3 1.105.31 1.607.025l1.506-.833c.603-.292.904-.852.904-1.46V7.258l4.519-4.39c.502-.472.703-1.193.401-1.824C14.658.414 14.055 0 13.352 0H1.704C1 0 .398.414.097 1.044c-.2.63-.1 1.352.402 1.824l4.619 4.39v6.076c0 .589.301 1.134.803 1.434zm2.31-2.268l-1.506.834V6.902c0-.15 0-.296-.1-.422 0-.066-.101-.125-.101-.178l-4.82-4.635h11.648l-4.82 4.635c-.1.053-.1.112-.1.178-.1.126-.201.273-.201.422V12.5z" opacity=".906"/>
</svg>
