<svg xmlns="http://www.w3.org/2000/svg" xmlns:xlink="http://www.w3.org/1999/xlink" width="14" height="16" viewBox="0 0 14 16">
    <defs>
        <path id="prefix__a" d="M0 0L13.278 0 13.278 15.077 0 15.077z"/>
    </defs>
    <g fill="none" fill-rule="evenodd">
        <mask id="prefix__b" fill="#fff">
            <use xlink:href="#prefix__a"/>
        </mask>
        <path fill="#002664" d="M12.366.328L.912 0C.835 0 .766.026.695.043.652.055.605.053.565.07.454.114.36.179.277.258.277.261.274.261.272.262.104.426 0 .655 0 .908v12.544c0 .502.408.908.912.908l8.213.717c.504 0 .913-.406.913-.907V4.518c0-.502-.41-.908-.913-.908l-6.34-.334c-.403 0-.731-.328-.731-.73 0-.402.328-.731.73-.731l7.684.33h.556c.237 0 .43.19.43.428v10.015c0 .5.408.907.912.907.503 0 .912-.406.912-.907V1.242c0-.502-.41-.914-.912-.914" mask="url(#prefix__b)"/>
    </g>
</svg>
