<?xml version="1.0" encoding="UTF-8"?>
<svg width="20px" height="20px" viewBox="0 0 20 20" version="1.1" xmlns="http://www.w3.org/2000/svg" xmlns:xlink="http://www.w3.org/1999/xlink">
    <title>994035F7-C14D-4716-A3D9-C4F64498AA44</title>
    <g id="Page-1" stroke="none" stroke-width="1" fill="none" fill-rule="evenodd">
        <g id="User-Management-/-User" transform="translate(-1122.000000, -30.000000)" fill="#002664" fill-rule="nonzero">
            <g id="Navigation" transform="translate(0.000000, -1.000000)">
                <g id="Right" transform="translate(1122.000000, 22.000000)">
                    <g id="Notifications" transform="translate(0.000000, 4.000000)">
                        <g id="Group-10-Copy-2" transform="translate(0.000000, 5.000000)">
                            <path d="M9.76973684,0.180921053 C15.0654936,0.180921053 19.3585526,4.47398011 19.3585526,9.76973684 C19.3585526,11.5582569 18.8675244,13.2754139 17.9549737,14.7669615 L18.2537318,18.4969171 C18.2807525,18.8342668 17.9958222,19.1138105 17.6590497,19.0803569 L13.3804566,18.65534 C12.2439457,19.1176263 11.0232407,19.3585526 9.76973684,19.3585526 C4.47398011,19.3585526 0.180921053,15.0654936 0.180921053,9.76973684 C0.180921053,4.47398011 4.47398011,0.180921053 9.76973684,0.180921053 Z M9.95370814,13.0263158 C9.55402839,13.0263158 9.23002393,13.3503202 9.23002393,13.75 C9.23002393,14.1496798 9.55402839,14.4736842 9.95370814,14.4736842 C10.3533879,14.4736842 10.6773924,14.1496798 10.6773924,13.75 C10.6773924,13.3503202 10.3533879,13.0263158 9.95370814,13.0263158 Z M9.94270154,5.78947368 C9.09885768,5.78947368 8.41737227,6.03551073 7.89822485,6.52759221 C7.65796827,6.75532293 7.44968398,7.11331628 7.27337196,7.60157226 C7.25846458,7.64276125 7.24804725,7.68543739 7.24226867,7.72885823 C7.19761953,8.06435631 7.43339918,8.37252651 7.76889725,8.41717565 C8.16402795,8.46976088 8.54721013,8.25832706 8.71340791,7.8960126 C8.8186528,7.6665719 8.92206687,7.50567918 9.02365011,7.41333445 C9.28780992,7.17319868 9.61617032,7.0531326 10.0087412,7.0531326 C10.4159875,7.0531326 10.7397619,7.16827794 10.980074,7.39857208 C11.220386,7.62886621 11.3405402,7.90541185 11.3405402,8.2282173 C11.3405402,8.46047976 11.2726669,8.67305577 11.1369181,8.86595171 C11.0488648,8.98798792 10.7792057,9.24583474 10.3279327,9.63949993 C9.87665966,10.0331651 9.57581549,10.3874585 9.42539115,10.7023906 C9.35681822,10.8459566 9.30082566,11.140764 9.25741347,11.5868129 C9.25535051,11.6078213 9.25432629,11.6289183 9.25432629,11.6500278 C9.25432629,12.0104509 9.54650695,12.3026316 9.90693007,12.3026316 C10.2870467,12.3026316 10.6074983,12.0191989 10.6539189,11.6419274 C10.6710122,11.5030317 10.6916777,11.4063675 10.7159155,11.3519349 C10.7947965,11.1747856 10.9974995,10.9405583 11.3240303,10.6492461 C11.9550788,10.0863049 12.3669051,9.64146988 12.5595216,9.31472778 C12.7521382,8.98798567 12.848445,8.64156551 12.848445,8.27545689 C12.848445,7.61409938 12.5861235,7.03443609 12.0614728,6.53644963 C11.5368221,6.03846318 10.830572,5.78947368 9.94270154,5.78947368 Z" id="Shape"></path>
                        </g>
                    </g>
                </g>
            </g>
        </g>
    </g>
</svg>