<svg xmlns="http://www.w3.org/2000/svg" xmlns:xlink="http://www.w3.org/1999/xlink" width="12" height="14" viewBox="0 0 12 14">
    <defs>
        <path id="prefix__a" d="M0 0L12 0 12 13.333 0 13.333z"/>
    </defs>
    <g fill="none" fill-rule="evenodd">
        <mask id="prefix__b" fill="#fff">
            <use xlink:href="#prefix__a"/>
        </mask>
        <path fill="#002664" d="M4.667 11.982h2.666V9.955c0-.746-.6-1.35-1.333-1.35s-1.333.604-1.333 1.35v2.027zm4 0H10c.4 0 .667-.302.667-.675v-6.29c0-.214-.134-.415-.267-.543l-4-2.99c-.2-.183-.533-.177-.8.016l-4 3.266c-.2.128-.267.322-.267.527v6.014c0 .373.267.675.667.675h1.333V9.955c0-1.492 1.2-2.702 2.667-2.702 1.467 0 2.667 1.21 2.667 2.702v2.027zM11.2 3.39l-4-2.99c-.733-.549-1.733-.53-2.467.047l-4 3.266C.267 4.097 0 4.678 0 5.292v6.015c0 1.12.867 2.026 2 2.026h8c1.133 0 2-.907 2-2.026v-6.29c0-.642-.333-1.246-.8-1.628z" mask="url(#prefix__b)"/>
    </g>
</svg>
