<svg xmlns="http://www.w3.org/2000/svg" width="12" height="17" viewBox="0 0 12 17">
    <path fill="#002664" fill-rule="evenodd" d="M2.5 6.022V4.98c0-1.833 1.5-3.32 3.3-3.32 1.8 0 3.3 1.487 3.3 3.32v1.042C8.2 5.365 7 4.98 5.8 4.98c-1.2 0-2.4.385-3.3 1.042zm0 2.279V8.3c.7-1.008 1.9-1.659 3.3-1.659 1.3 0 2.6.651 3.3 1.659v.001c.5.693.8 1.555.8 2.49 0 2.292-1.8 4.15-4.1 4.15s-4.2-1.858-4.2-4.15c0-.935.3-1.797.9-2.49zM.8 7.796V4.98C.8 2.23 3 0 5.8 0c2.7 0 5 2.23 5 4.98v2.816c.5.875.8 1.899.8 2.995 0 3.209-2.6 5.81-5.8 5.81-3.2 0-5.8-2.601-5.8-5.81 0-1.096.3-2.12.8-2.995zm5 1.335c.9 0 1.6.743 1.6 1.66 0 .916-.7 1.66-1.6 1.66-.9 0-1.7-.744-1.7-1.66 0-.917.8-1.66 1.7-1.66z"/>
</svg>
