<svg xmlns="http://www.w3.org/2000/svg" xmlns:xlink="http://www.w3.org/1999/xlink" width="24" height="25" viewBox="0 0 24 25">
    <defs>
        <path id="prefix__a" d="M0 0L15.552 0 15.552 19.199 0 19.199z"/>
        <path id="prefix__c" d="M9.272 16.799H6.505c-.595 0-1.006.64-.718 1.16.409.739 1.197 1.24 2.102 1.24.904 0 1.692-.501 2.1-1.24.289-.52-.122-1.16-.717-1.16m5.94-1.416c-.305.392-.764.616-1.26.616H1.6c-.496 0-.956-.224-1.262-.616-.305-.39-.411-.89-.29-1.371L.576 11.9V7.2c0-1.983.83-3.898 2.278-5.254C4.32.57 6.242-.11 8.254.015c3.77.244 6.722 3.496 6.722 7.403V11.9l.528 2.112c.12.48.014.98-.291 1.37"/>
    </defs>
    <g fill="none" fill-rule="evenodd" transform="translate(4 2.273)">
        <mask id="prefix__b" fill="#fff">
            <use xlink:href="#prefix__a"/>
        </mask>
        <g mask="url(#prefix__b)">
            <mask id="prefix__d" fill="#fff">
                <use xlink:href="#prefix__c"/>
            </mask>
            <use fill="#3E2AD1" xlink:href="#prefix__c"/>
            <g fill="#FFF" mask="url(#prefix__d)">
                <path d="M0 0H24V24H0z" transform="translate(-4 -2)"/>
            </g>
            <g fill="#002664" mask="url(#prefix__d)">
                <path d="M0 0H24V24H0z" transform="translate(-4 -2)"/>
            </g>
        </g>
    </g>
</svg>
