<svg xmlns="http://www.w3.org/2000/svg" xmlns:xlink="http://www.w3.org/1999/xlink" width="460" height="329" viewBox="0 0 460 329">
    <defs>
        <path id="prefix__a" d="M0 0H460V329H0z"/>
        <path id="prefix__c" d="M0 0H460V329H0z"/>
        <path id="prefix__e" d="M0 0H460V329H0z"/>
        <path id="prefix__g" d="M0 0H460V329H0z"/>
        <path id="prefix__i" d="M0 0H460V329H0z"/>
        <path id="prefix__k" d="M0 0H460V329H0z"/>
        <path id="prefix__m" d="M0 0H460V329H0z"/>
        <path id="prefix__o" d="M0 0H460V329H0z"/>
    </defs>
    <g fill="none" fill-rule="evenodd" opacity=".692">
        <mask id="prefix__b" fill="#fff">
            <use xlink:href="#prefix__a"/>
        </mask>
        <path fill="#C0A772" fill-rule="nonzero" d="M0 231.287H460V329H0z" mask="url(#prefix__b)"/>
        <mask id="prefix__d" fill="#fff">
            <use xlink:href="#prefix__c"/>
        </mask>
        <path fill="#EBEBEC" fill-rule="nonzero" d="M460 259.811c0-.888-118.614-2.862-173.814 3.389-55.2 6.251-151.143 4.639-151.143 4.639L71.3 331.96l400.857 9.87L460 259.811z" mask="url(#prefix__d)"/>
        <mask id="prefix__f" fill="#fff">
            <use xlink:href="#prefix__e"/>
        </mask>
        <path fill="#C2C4C6" fill-rule="nonzero" d="M369.249 270.57l77.378 13.423s-18.991 18.194-64.827 19.345c-43.864-9.442-114.211-23.096-114.211-23.096l101.66-9.672z" mask="url(#prefix__f)"/>
        <mask id="prefix__h" fill="#fff">
            <use xlink:href="#prefix__g"/>
        </mask>
        <path fill="#E0771D" fill-rule="nonzero" d="M366.751 276.393c-8.838-4.343-20.404-3.158-29.932-3.356-11.993-.23-24.052.165-36.045.165-12.058.065-23.493-1.284-34.861 3.355-1.019.428-2.136.954-2.563 1.974-.526 1.185.164 2.632 1.216 3.422 1.051.757 2.398 1.02 3.68 1.217 19.188 2.764 39.198-4.014 57.927.987-.329 1.612-2.136 2.336-3.614 3.093-1.446.757-2.958 2.435-2.136 3.85.558.953 1.807 1.15 2.924 1.25 18.564 1.414 37.162-1.152 55.562-3.718 4.435-.625 8.444.131 12.748-1.974.92-.46 1.939-1.25 1.709-2.238-.23-1.118-1.643-1.348-2.76-1.48-1.84-.23-3.615-.888-5.159-1.875-.526-.33-1.051-.79-1.018-1.415.032-.724.821-1.119 1.511-1.316 6.309-1.941 13.406-.888 19.353-3.718.46-.23.92-.493 1.15-.954.493-1.053-.657-2.072-1.709-2.566-5.257-2.402-11.368-1.71-17.118-.954-3.056.395-6.769 1.349-7.557 4.343-.198.822-.165 1.743-.625 2.434-.427.658-1.183.987-1.938 1.218-2.267.69-4.732.79-6.966.033-1.347-.461-2.563-1.185-3.779-1.777z" mask="url(#prefix__h)"/>
        <g>
            <mask id="prefix__j" fill="#fff">
                <use xlink:href="#prefix__i"/>
            </mask>
            <path fill="#F7901E" fill-rule="nonzero" d="M278.3 305.51c-2.136 3.355-6.309 4.803-10.284 5.099-9.66.724-19.386.79-29.112.46-5.717-.197-11.434-.46-17.151-.79-4.009-.23-11.664.725-15.049-1.315-1.314-.79-2.103-2.6-1.314-3.882.164-.23.361-.46.427-.757.164-.822-.887-1.283-1.741-1.415-7.36-.987-15.147.954-22.113-1.645-1.807-.658-3.812-2.401-2.99-4.178.427-.921 1.511-1.349 2.497-1.645.756-.23 1.544-.46 2.3-.658 13.011-3.553 26.253-2.862 39.659-3.454 7.82-.362 15.64-.691 23.492-.428 3.023.099 5.849.855 8.806 1.086 3.746.263 7.426.23 11.172.723.755.099 1.511.23 2.234.428.821.263 1.577.625 2.136 1.283l.098.099c.329.395.526.888.493 1.382-.033.855-.789 1.513-1.544 1.875-.789.362-1.643.526-2.399.921-.624.33-1.183.856-1.248 1.546v.1c0 .657.46 1.25 1.051 1.578.591.33 1.314.428 2.004.46 2.267.132 4.436-.196 6.637-.032.23 0 .46.033.658.066.492.066 1.051.131 1.412.493.723.691.395 1.81-.131 2.6z" mask="url(#prefix__j)"/>
        </g>
        <g>
            <mask id="prefix__l" fill="#fff">
                <use xlink:href="#prefix__k"/>
            </mask>
            <path fill="#E0771D" fill-rule="nonzero" d="M275.671 305.476c-3.384 1.909-7.458 2.007-11.335 2.073-9.003.132-17.973.296-26.976.428-8.214.132-16.461 1.086-24.511-1.217-1.052-.296-2.76-.922-3.056-2.139-.263-1.086.92-1.875 0-3.027-.854-1.053-2.563-1.118-3.779-1.184-3.778-.23-7.59-.428-11.368-.625-3.385-.198-7.196.131-10.449-.724-.854-.23-1.774-.493-2.3-1.184-1.084-1.48.887-2.468 1.906-3.06 13.011-3.553 26.253-2.862 39.658-3.455 7.82-.362 15.64-.69 23.493-.427 3.023.098 5.849.855 8.806 1.085 3.746.264 7.426.23 11.171.724.756.099 1.512.23 2.235.428.427 1.02.328 2.27-.559 2.928-.821.625-1.938.526-2.957.724-1.019.197-2.07 1.151-1.676 2.105.165.428.592.658 1.019.856.558.263 1.117.46 1.708.625 3.056.79 6.473.46 9.332 1.81.131.065.263.131.361.197.296.164.559.395.69.69.395.922-.525 1.876-1.413 2.37z" mask="url(#prefix__l)"/>
        </g>
        <g>
            <mask id="prefix__n" fill="#fff">
                <use xlink:href="#prefix__m"/>
            </mask>
            <g fill="#F7901E" fill-rule="nonzero" mask="url(#prefix__n)">
                <path d="M-.953 211.58c-6.966-5 5.422-11.12-.788-16.187C-10.186 189.34-3.516-5.56-1.94-11.614c5.028 0 12.42.494 15.049-.033 8.05-2.04 18.104-2.04 28.126-2.072 5.027 0-.395 1.513 4.764 1.02-.394 1.513 1.446 4.046 6.867 2.5 5.159-.526.657-2.533 8.313-3.06 7.656-.526 14.917.494 22.573-.033.131-.493.394-1.513.526-2.04 5.158-.526 14.917.494 15.048-.032 5.422-1.514 3.417-3.553 3.943-5.56 5.027 0 10.153-.527 12.42.493.394 17.7.723 224.214-11.434 241.947-3.023 2.04-12.683.526-19.813-.987 2.366.493-5.159.526-2.76 1.02-7.524 0-19.813-.987-21.784-2.994-.132.493-.263 1.02-.395 1.513-2.628.526-7.524 0-12.551.033.131-.493.263-1.02-2.267-1.02-2.497 0-7.525 0-10.022.033-.131.494-.394 1.513-.525 2.04.131-.494.262-1.02-2.235-1.02s-7.524 0-10.054.033c-2.234-1.02 3.187-2.534.92-3.553h-7.524c-2.793 1.02-.657 2.533-.92 3.553-2.366-.494-4.896-.494-9.923-.494-2.103-1.513 5.816-3.06-1.314-4.54-.132.494-.263 1.02-.395 1.513-12.255-1.02-1.544-3.553-3.647-5.066z"/>
            </g>
        </g>
        <g/>
        <g fill-rule="nonzero">
            <g transform="translate(265.333 143.192) translate(.767 .252)">
                <path fill="#5D8993" d="M123.149 17.569v109.557c0 2.335-2.432 4.54-6.703 6.448-4.042 1.81-9.726 3.356-16.56 4.54-8.905 1.547-19.813 2.435-31.543 2.435-4.732 0-9.364-.165-13.734-.428-23.625-1.48-41.072-6.744-41.072-13.028V17.536c4.666 4.935 20.634 8.817 41.072 10.034 4.402.263 9.002.395 13.734.395 11.697 0 22.54-.855 31.543-2.303 6.703-1.086 12.354-2.5 16.56-4.178 3.055-1.152 5.355-2.5 6.703-3.915z"/>
                <path fill="#4D757E" d="M99.853 25.695V138.08c-8.904 1.547-19.813 2.435-31.543 2.435-4.731 0-9.364-.165-13.734-.428V27.57c4.403.263 9.003.395 13.734.395 11.697.066 22.54-.79 31.543-2.27zM123.149 17.569v109.557c0 2.335-2.432 4.54-6.703 6.448V21.549c3.055-1.217 5.355-2.566 6.703-3.98z"/>
                <path fill="#E2E3E4" d="M124.529 13.686c0 7.403-25.169 13.424-56.219 13.424s-56.219-6.021-56.219-13.424C12.091 6.251 37.26.263 68.31.263s56.219 6.02 56.219 13.423z"/>
                <path fill="#D8D9DA" d="M124.529 14.312v5.954C118.713 26.254 95.746 30.73 68.31 30.73s-50.403-4.475-56.219-10.463v-5.954l.066-.066C13.373 21.385 38.05 27.11 68.31 27.11s54.937-5.725 56.153-12.864c.033.033.033.066.066.066zM123.149 127.126v2.697c0 7.436-24.545 13.424-54.806 13.424-30.262 0-54.806-6.021-54.806-13.424v-2.697c0 7.435 24.544 13.423 54.806 13.423 30.261 0 54.806-6.02 54.806-13.423z"/>
                <path fill="#B3B5B8" d="M63.776 3.882c-24.446.46-43.569 4.672-43.569 9.804 0 2.6 4.929 4.968 12.946 6.712 8.773 1.908 21.291 3.125 35.157 3.125 6.276 0 12.256-.263 17.743-.69C79.71 15.364 72.12 9.08 63.776 3.883z"/>
                <path fill="#D8D9DA" d="M68.31 3.85c-1.544 0-3.056 0-4.534.032 8.345 5.198 15.935 11.45 22.31 18.95 6.67-.526 12.584-1.381 17.414-2.434 8.05-1.777 12.946-4.113 12.946-6.712 0-5.428-21.555-9.837-48.136-9.837z"/>
                <path fill="#DA711C" d="M103.467 20.43c-8.773 1.91-21.291 3.126-35.157 3.126-13.866 0-26.384-1.217-35.157-3.125 8.773-1.908 21.291-3.126 35.157-3.126 13.866 0 26.384 1.185 35.157 3.126z"/>
                <path fill="#B3B5B8" d="M68.31 25.991c-25.727 0-52.341-4.606-52.341-12.272 0-7.698 26.614-12.271 52.341-12.271s52.341 4.606 52.341 12.271c0 7.666-26.614 12.272-52.341 12.272zm0-23.425c-30.623 0-51.191 5.758-51.191 11.12 0 5.363 20.568 11.12 51.191 11.12s51.191-5.757 51.191-11.12c0-5.362-20.568-11.12-51.191-11.12z"/>
                <path fill="#C2C4C6" d="M9.824 92.12c1.216-.197 2.465-.494 3.647-.888V83.96c-4.402 1.678-6.111 1.48-6.538 1.382-.033-.198-.099-.593-.033-1.284-.559 3.356.624 6.12 2.924 8.061z"/>
                <path fill="#D8D9DA" d="M35.847 31.979c-1.478-1.217-3.68-.954-4.863.526-3.351 4.244-10.021 12.897-16.231 22.01-.427.658-.854 1.283-1.282 1.908-15.245 22.8-14.654 29.545-12.025 33.098 1.511 2.04 3.713 2.763 6.177 2.763.723 0 1.446-.065 2.201-.164-2.3-1.941-3.483-4.705-2.891-8.06.23-1.909 1.446-6.12 6.538-14.773 1.906-3.224 4.338-7.04 7.426-11.58 5.98-8.686 12.289-16.878 15.476-20.925.493-.625.723-1.382.723-2.138.033-1.02-.395-2.007-1.249-2.665z"/>
                <ellipse cx="32.923" cy="34.413" fill="#BABCBE" rx="1.906" ry="1.908"/>
                <path fill="#F7901E" d="M112.766 31.354c-.296 3.29-1.019 6.448-2.695 9.278-1.347 2.303-3.548 4.342-6.177 4.507-1.38.066-2.99-.33-4.074.56-.789.624-.986 1.71-1.15 2.73-.46 2.994-.92 5.955-1.38 8.949-.131.92-.296 1.908-.887 2.632-.887 1.118-2.464 1.381-3.45 2.368-1.117 1.119-1.282 2.863-1.38 4.475-.132 2.434-.263 4.902-.394 7.337-.165 2.73-.296 5.494-1.249 8.06-.394 1.086-1.019 2.204-2.07 2.73-1.183.593-2.497.264-3.614-.493-.69-.46-1.282-1.118-1.742-1.81C80.83 80.08 80.5 76.822 80.5 73.73c0-3.093.23-6.251-.46-9.245-.099-.395-.197-.79-.329-1.184-.558-1.645-1.445-3.29-2.76-4.343-1.544-1.218-2.825-.625-4.501-1.25-.033 0-.066-.033-.099-.033-3.614-1.415-3.581-5.988-3.417-9.212.263-5.231.263-10.495.033-15.727-.098-1.875-.197-3.783-.887-5.527-.69-1.743-2.004-3.355-3.779-3.882 5.685-2.171 11.172-1.908 17.218-2.303 5.684-.395 11.302-1.349 16.954-1.974 4.994-.56 10.81-1.974 13.274 3.652 1.183 2.6 1.282 5.823 1.019 8.653z"/>
                <path fill="#E0771D" d="M112.766 31.354c-.296 3.29-1.019 6.448-2.695 9.278-1.347 2.303-3.548 4.342-6.177 4.507-1.38.066-2.99-.33-4.074.56-.789.624-.986 1.71-1.15 2.73-.46 2.994-.92 5.955-1.38 8.949-.131.92-.296 1.908-.887 2.632-.887 1.118-2.464 1.381-3.45 2.368-1.117 1.119-1.282 2.863-1.38 4.475-.132 2.434-.263 4.902-.394 7.337-.165 2.73-.296 5.494-1.249 8.06-.394 1.086-1.019 2.204-2.07 2.73-1.183.593-2.497.264-3.614-.493-.887-1.875-1.249-4.014-1.38-6.086-.165-2.863.033-5.725-.362-8.554-.328-2.37-1.183-4.77-2.793-6.514-.558-1.645-1.445-3.29-2.76-4.343-1.544-1.218-2.825-.625-4.501-1.25-.033 0-.066-.033-.099-.033-2.267-3.652-1.248-8.85-1.577-12.963-.295-3.816-.525-7.633-.657-11.416-.033-.922-.033-1.941.592-2.632.854-.922 2.365-.691 3.614-.46 6.177 1.118 12.486.262 18.696-.56 3.022-.395 6.078-.823 8.904-1.908 2.333-.889 4.863-2.238 7.196-1.35 2.332.823 3.285 2.731 3.647 4.936z"/>
                <path fill="#E0771D" d="M102.449 73.4c1.084-2.073.69-7.567-2.235-8.324-1.215-.296-2.497.658-2.924 1.843-.756 1.974-1.117 7.073 1.15 8.29.723.395 1.643.33 2.366-.065.723-.33 1.281-.987 1.643-1.744z"/>
            </g>
        </g>
        <g fill-rule="nonzero">
            <g>
                <path fill="#42656E" d="M54.149 91.594l-1.939-1.941-4.271-4.278C29.046 97.713 10.613 117.19 2.2 126.6c-2.267 2.533-2.53 6.152-.887 8.949.329.56.723 1.086 1.183 1.546.46.46.986.856 1.544 1.185 1.118.658 2.366 1.02 3.648 1.053 1.872.065 3.778-.593 5.29-1.942 9.397-8.422 28.848-26.879 41.17-45.796z" transform="translate(314.333 174.728) translate(.11 .3)"/>
                <path fill="#D8D9DA" d="M54.543 87.415l-2.399-2.401 5.257-5.264c2.826-2.83 7.328-3.29 10.679-1.086l40.053 26.517c1.544 1.086 3.581.889 4.896-.395l11.565-11.58c1.479-1.48 1.479-3.883 0-5.363l-7.393-7.403 2.399-2.401 7.393 7.402c2.793 2.797 2.793 7.37 0 10.166l-11.566 11.581c-2.464 2.468-6.308 2.797-9.167.823L66.24 81.526c-2.004-1.349-4.731-1.053-6.44.658l-5.257 5.231z" transform="translate(314.333 174.728) translate(.11 .3)"/>
                <g transform="translate(314.333 174.728) translate(.11 .3) translate(36.8)">
                    <ellipse cx="84.641" cy="84.792" fill="#5D8993" rx="6.082" ry="13.612" transform="rotate(45 84.641 84.792)"/>
                    <path fill="#E0771D" d="M87.729 87.909c-6.375 6.382-13.735 9.376-16.462 6.646l-.033-.033-.033-.033-65.78-65.866c-1.15-1.152-1.15-3.027 0-4.178l18.926-18.95c1.15-1.152 3.023-1.152 4.173 0L94.3 71.326l.033.033.033.033c1.347 1.349 1.281 3.882.098 6.843-1.183 2.994-3.548 6.449-6.735 9.673z"/>
                    <path fill="#F7901E" d="M94.464 78.27L23.033 6.744l1.281-1.284c1.15-1.151 3.023-1.151 4.173 0L94.3 71.327l.033.033.033.033c1.347 1.382 1.281 3.882.098 6.876z"/>
                    <ellipse cx="16.629" cy="16.703" fill="#F7901E" rx="6.937" ry="16.34" transform="rotate(45 16.629 16.703)"/>
                    <ellipse cx="14.26" cy="14.322" fill="#5D8993" rx="6.082" ry="13.612" transform="rotate(45 14.26 14.322)"/>
                    <path fill="#4D757E" d="M16.363 16.45c-2.399 2.402-4.929 4.113-6.834 4.705-1.118.362-2.005.329-2.498-.165-1.314-1.316.723-5.494 4.568-9.343 3.844-3.85 8.017-5.89 9.331-4.574.493.494.526 1.382.164 2.5-.624 1.91-2.333 4.475-4.731 6.877z"/>
                    <path fill="#3C5E66" d="M16.363 16.45c-2.399 2.402-4.929 4.113-6.834 4.705.624-1.876 2.3-4.442 4.698-6.844 2.399-2.401 4.929-4.112 6.834-4.704-.591 1.875-2.3 4.441-4.698 6.843z"/>
                </g>
                <path fill="#5D8993" d="M54.839 92.317l-7.59-7.6c-.69-.69-.69-1.776 0-2.467l1.412-1.415c.69-.69 1.775-.69 2.465 0l7.59 7.6c.69.691.69 1.777 0 2.468l-1.413 1.414c-.657.691-1.774.691-2.464 0z" transform="translate(314.333 174.728) translate(.11 .3)"/>
                <path fill="#4D757E" d="M12.979 137.423c-1.512 1.35-3.418 2.007-5.29 1.941-1.282-.032-2.53-.394-3.648-1.052 13.11-13.029 30.853-30.795 48.169-48.66l1.939 1.942c-12.322 18.917-31.773 37.374-41.17 45.83z" transform="translate(314.333 174.728) translate(.11 .3)"/>
                <path fill="#42656E" d="M4.041 138.312c-.558-.33-1.051-.724-1.544-1.185-.46-.46-.854-.987-1.183-1.546-1.643-2.797-1.38-6.416.887-8.949 8.412-9.41 26.878-28.886 45.738-41.224l4.271 4.277c-17.316 17.832-35.026 35.598-48.169 48.627z" transform="translate(314.333 174.728) translate(.11 .3)"/>
            </g>
        </g>
    </g>
</svg>
