<svg xmlns="http://www.w3.org/2000/svg" width="21" height="20" viewBox="0 0 21 20">
    <path fill="#8092B1" d="M17.387 8.487c-.09.111-.186.22-.286.325-1.015 1.066-2.382 1.663-3.85 1.68l-.067.001c-1.092 0-2.133-.321-3.018-.921-.405.151-.878.065-1.203-.26-.444-.444-.444-1.164 0-1.608.444-.444 1.163-.444 1.607 0 .268.268.374.635.319.983.694.446 1.503.68 2.349.67 1.158-.015 2.238-.486 3.04-1.328.107-.113.207-.23.299-.352L12.71 3.81l1.766-1.776c.466-.465 1.223-.465 1.689 0 1.532 1.532 1.68 3.972.411 5.642l.81.81c.794-.981 1.214-2.204 1.188-3.488-.029-1.423-.6-2.76-1.606-3.768-.908-.908-2.387-.908-3.295 0L11.899 3l-.99-.99L6.8 6.116c-.526-.218-1.096-.332-1.669-.332C2.73 5.785.775 7.74.775 10.142v3.41h1.136v-3.41c0-.627.51-1.137 1.137-1.137.238 0 .466.075.655.209l-.436.436 9.242 9.241 7.641-7.641-2.763-2.763zM4.513 8.404c-.405-.342-.922-.535-1.465-.535-.069 0-.137.004-.204.01.584-.59 1.393-.957 2.287-.957.264 0 .522.03.772.092l-1.39 1.39z"/>
</svg>
