<svg xmlns="http://www.w3.org/2000/svg" width="17" height="17" viewBox="0 0 17 17">
    <g fill="#8092B1">
        <path d="M14.208 10.333H9.752l-4.908 4.844-.323.323h9.687c.714 0 1.292-.578 1.292-1.292v-2.583c0-.713-.578-1.292-1.292-1.292zM12.658 4.715l-1.873-1.873c-.502-.493-1.306-.493-1.808 0L5.813 6.006v6.91c-.011.153-.033.304-.065.453l6.91-6.846c.493-.502.493-1.306 0-1.808zM5.167 1.292C5.167.578 4.588 0 3.875 0H1.292C.578 0 0 .578 0 1.292v11.625C0 14.343 1.157 15.5 2.583 15.5c1.427 0 2.584-1.157 2.584-2.583V1.292zm-2.584 12.27c-.356 0-.645-.289-.645-.645 0-.357.289-.646.645-.646.357 0 .646.289.646.646 0 .356-.289.646-.646.646z" transform="translate(.55 .55)"/>
    </g>
</svg>
