<svg xmlns="http://www.w3.org/2000/svg" width="17" height="17" viewBox="0 0 17 17">
    <path fill="#002664" fill-rule="evenodd" d="M4.2 0c-1 0-1.7.743-1.7 1.66v2.49h-.8c-1 0-1.7.743-1.7 1.66v5.81c0 .917.7 1.66 1.7 1.66h1.6v1.66c0 .917.8 1.66 1.7 1.66h6.6c.9 0 1.7-.743 1.7-1.66v-1.66h1.6c1 0 1.7-.743 1.7-1.66V5.81c0-.917-.7-1.66-1.7-1.66h-.8V1.66C14.1.743 13.4 0 12.5 0H4.2zm8.3 4.15V1.66H4.2v2.49h8.3zm.8 7.47h1.6V5.81H1.7v5.81h1.6v-.83c0-.917.8-1.66 1.7-1.66h6.6c.9 0 1.7.743 1.7 1.66v.83zM4.2 6.64c-.5 0-.9.372-.9.83 0 .458.4.83.9.83h1.6c.5 0 .8-.372.8-.83 0-.458-.3-.83-.8-.83H4.2zm5.8 4.15h1.6V14.94H5V10.79h5z"/>
</svg>
