<svg xmlns="http://www.w3.org/2000/svg" width="19" height="19" viewBox="0 0 19 19">
    <g fill="#FFF">
        <path d="M14.514 10.556H9.962l-5.014 4.947-.33.33h9.896c.729 0 1.32-.59 1.32-1.32v-2.638c0-.729-.591-1.32-1.32-1.32zM12.93 4.816l-1.913-1.913c-.513-.503-1.334-.503-1.847 0L5.938 6.135v7.06c-.011.155-.033.31-.066.461l7.059-6.993c.502-.513.502-1.334 0-1.847zM5.278 1.32C5.278.59 4.687 0 3.958 0H1.32C.591 0 0 .59 0 1.32v11.874c0 1.458 1.181 2.64 2.639 2.64 1.457 0 2.639-1.182 2.639-2.64V1.32zm-2.64 12.534c-.363 0-.659-.295-.659-.66 0-.364.296-.66.66-.66.364 0 .66.296.66.66 0 .365-.296.66-.66.66z" transform="translate(1.583 1.583)"/>
    </g>
</svg>
