<svg xmlns="http://www.w3.org/2000/svg" width="27" height="19" viewBox="0 0 27 19">
    <g fill="#002664" fill-rule="evenodd">
        <g fill-rule="nonzero">
            <path d="M15.82 11.506h-4.962l-5.465 5.393-.36.36H15.82c.794 0 1.438-.645 1.438-1.439v-2.876c0-.795-.644-1.438-1.438-1.438zM14.094 5.25L12.01 3.163c-.56-.548-1.454-.548-2.014 0L6.472 6.688v7.694c-.012.17-.036.337-.072.503l7.694-7.622c.548-.56.548-1.454 0-2.014zM5.753 1.438C5.753.644 5.109 0 4.315 0H1.438C.644 0 0 .644 0 1.438v12.944c0 1.589 1.288 2.876 2.876 2.876 1.589 0 2.877-1.287 2.877-2.876V1.438zM2.876 15.101c-.397 0-.719-.322-.719-.719 0-.397.322-.72.72-.72.397 0 .718.323.718.72 0 .397-.321.719-.719.719z" transform="translate(.636 .636)"/>
        </g>
        <path d="M25.513 14.547h-2.032c-.052 0-.104-.046-.104-.092v-1.76c0-.417-.313-.695-.73-.695-.416 0-.781.278-.781.695V14.5c0 .046-.052.093-.104.093h-1.98c-.47-.047-.782.278-.782.648s.365.695.782.695h2.032c.052 0 .104.046.104.092v1.807c-.052.324.313.648.73.648.416 0 .78-.324.78-.695v-1.806c0-.046.053-.092.105-.092h2.032c.365 0 .73-.278.73-.649 0-.74-.782-.695-.782-.695"/>
    </g>
</svg>
