<svg xmlns="http://www.w3.org/2000/svg" xmlns:xlink="http://www.w3.org/1999/xlink" width="16" height="19" viewBox="0 0 16 19">
    <defs>
        <path id="prefix__a" d="M0 0L6 0 6 6 0 6z"/>
    </defs>
    <g fill="none" fill-rule="evenodd">
        <g fill="#002664" fill-rule="nonzero">
            <path d="M14.094 5.25L12.01 3.163c-.56-.548-1.454-.548-2.014 0L6.472 6.688v7.694c-.012.17-.036.337-.072.503l7.694-7.622c.548-.56.548-1.454 0-2.014zM5.753 1.438C5.753.644 5.109 0 4.315 0H1.438C.644 0 0 .644 0 1.438v12.944c0 1.589 1.288 2.876 2.876 2.876 1.589 0 2.877-1.287 2.877-2.876V1.438zM2.876 15.101c-.397 0-.719-.322-.719-.719 0-.397.322-.72.72-.72.397 0 .718.323.718.72 0 .397-.321.719-.719.719z"/>
        </g>
        <g transform="translate(10 13)">
            <mask id="prefix__b" fill="#fff">
                <use xlink:href="#prefix__a"/>
            </mask>
            <path fill="#002664" d="M3.764.213L2.5 1.477 1.234.212C.952-.07.494-.07.211.212c-.282.282-.282.74 0 1.023L1.478 2.5.213 3.764c-.282.282-.282.74 0 1.023.283.282.741.282 1.024 0l1.264-1.263 1.264 1.264c.283.283.74.283 1.024 0 .282-.282.282-.74-.001-1.023L3.524 2.501l1.263-1.264c.283-.282.283-.74 0-1.023-.283-.283-.741-.283-1.023 0" mask="url(#prefix__b)"/>
        </g>
    </g>
</svg>
