<svg xmlns="http://www.w3.org/2000/svg" xmlns:xlink="http://www.w3.org/1999/xlink" width="16" height="16" viewBox="0 0 16 16">
    <defs>
        <path id="prefix__a" d="M0.668 0L15.63 0 15.63 7.221 0.668 7.221z"/>
        <path id="prefix__c" d="M0 0.779L14.961 0.779 14.961 8 0 8z"/>
    </defs>
    <g fill="none" fill-rule="evenodd">
        <mask id="prefix__b" fill="#fff">
            <use xlink:href="#prefix__a"/>
        </mask>
        <path fill="#002664" d="M14.935.667c-.043-.37-.496-.528-.76-.262l-1.563 1.563C9.887-.625 5.552-.685 2.699 1.96 1.692 2.893 1.027 4.051.687 5.29c-.09.324.153.65.488.69l1.886.219c.276.032.518-.146.608-.41.217-.638.6-1.224 1.17-1.696 1.685-1.395 3.794-1.338 5.43.218l-1.42 1.42c-.265.263-.11.715.26.76l5.833.725c.394.05.73-.285.683-.679l-.69-5.87z" mask="url(#prefix__b)"/>
        <g transform="translate(0 8)">
            <mask id="prefix__d" fill="#fff">
                <use xlink:href="#prefix__c"/>
            </mask>
            <path fill="#002664" d="M.695 7.333c.044.37.496.527.76.263l1.563-1.564c2.725 2.592 7.06 2.653 9.913.008 1.007-.932 1.672-2.091 2.012-3.329.089-.325-.154-.651-.488-.69l-1.886-.22c-.277-.032-.518.147-.608.41-.217.638-.6 1.225-1.17 1.695-1.685 1.396-3.795 1.339-5.43-.217l1.42-1.42c.264-.263.11-.715-.26-.76L.689.784c-.396-.049-.732.285-.685.679l.69 5.87z" mask="url(#prefix__d)"/>
        </g>
    </g>
</svg>
