<svg xmlns="http://www.w3.org/2000/svg" width="15" height="17" viewBox="0 0 15 17">
    <path fill="#FFF" fill-rule="evenodd" d="M4.1 16.601h8.3c1.4 0 2.5-1.115 2.5-2.491V4.802c0-.574-.2-1.131-.5-1.575L12.5.915C12 .336 11.3 0 10.5 0h-8C1.1 0 0 1.115 0 2.49v11.62c0 1.376 1.1 2.491 2.5 2.491h1.6zm-.8-1.661h-.8c-.5 0-.9-.371-.9-.83V2.49c0-.458.4-.83.9-.83h.8v2.49c0 .458.4.83.8.83h5.8c.5 0 .9-.372.9-.83V1.692c.1.046.3.14.4.273l1.9 2.312c.1.148.2.333.2.525v9.308c0 .459-.4.83-.9.83h-.8V9.13c0-.458-.4-.83-.8-.83H4.1c-.4 0-.8.372-.8.83v5.81zM7.5 1.66H5v1.66h4.1V1.66H7.5zM5 14.94h4.9V9.96H5v4.98zm1.6-3.32c-.4 0-.8.372-.8.83 0 .459.4.83.8.83h1.7c.4 0 .8-.371.8-.83 0-.458-.4-.83-.8-.83H6.6z"/>
</svg>
