<svg xmlns="http://www.w3.org/2000/svg" width="19" height="19" viewBox="0 0 19 19">
    <path fill="#FFF" d="M17.76 9.69c-.092.115-.19.226-.291.333-1.037 1.089-2.433 1.699-3.932 1.717h-.07c-1.115 0-2.178-.328-3.083-.941-.413.155-.896.066-1.228-.266-.454-.453-.454-1.188 0-1.642.453-.453 1.188-.453 1.642 0 .273.274.381.65.325 1.004.71.455 1.536.694 2.4.684 1.183-.014 2.286-.496 3.105-1.356.11-.115.211-.235.305-.36l-3.949-3.949L14.79 3.1c.475-.475 1.249-.475 1.724 0 1.565 1.565 1.716 4.058.42 5.763l.828.828c.811-1.002 1.24-2.251 1.213-3.563-.029-1.454-.612-2.82-1.64-3.849-.928-.928-2.438-.928-3.366 0l-1.813 1.806-1.012-1.012L6.946 7.27c-.537-.222-1.12-.339-1.704-.339-2.454 0-4.45 1.997-4.45 4.45v3.483h1.16v-3.483c0-.64.521-1.16 1.161-1.16.244 0 .477.076.67.212l-.445.446 9.44 9.44 7.805-7.806-2.822-2.822zM4.61 9.607c-.414-.349-.941-.546-1.497-.546-.07 0-.14.003-.208.01.596-.603 1.424-.978 2.337-.978.27 0 .533.032.788.095l-1.42 1.42z"/>
</svg>
