<svg xmlns="http://www.w3.org/2000/svg" width="20" height="20" viewBox="0 0 20 20">
    <path fill="#7F8FA4" fill-rule="evenodd" d="M15.576 16.892c-.192 0-.375-.078-.502-.213l-2.58-2.742c-1.591.942-3.575 1.085-5.302.384-1.727-.701-2.974-2.157-3.333-3.89-.471-2.238.612-4.511 2.704-5.672 2.091-1.16 4.735-.957 6.597.509 1.861 1.466 2.535 3.874 1.68 6.01-.13.323-.516.486-.862.363-.345-.123-.518-.485-.387-.81.5-1.25.325-2.65-.472-3.757-.797-1.107-2.116-1.783-3.539-1.813-1.326-.038-2.598.498-3.448 1.455-1.383 1.552-1.362 3.817.05 5.345 1.413 1.529 3.799 1.87 5.63.804.558-.308 1.27-.197 1.692.263l2.58 2.742c.173.185.215.448.107.672-.108.224-.346.369-.609.37l-.006-.02z"/>
</svg>
