<svg xmlns="http://www.w3.org/2000/svg" width="19" height="19" viewBox="0 0 19 19">
    <path fill="#FFF" fill-rule="evenodd" d="M10.676 1.583c.22 0 .41.155.456.37l.317 1.504c.326.105.642.236.946.392l1.287-.84c.185-.12.428-.095.584.061l1.664 1.664c.156.156.18.4.06.584l-.84 1.287c.157.304.288.62.393.946l1.504.317c.215.045.37.235.37.456v2.352c0 .22-.155.41-.37.456l-1.504.317c-.105.326-.236.642-.392.946l.84 1.287c.12.185.095.428-.061.584l-1.664 1.664c-.156.156-.4.18-.584.06l-1.287-.84c-.304.157-.62.288-.946.393l-.317 1.504c-.045.215-.235.37-.456.37H8.324c-.22 0-.41-.155-.456-.37l-.317-1.504c-.326-.105-.642-.236-.946-.392l-1.287.84c-.185.12-.428.095-.584-.061L3.07 14.266c-.156-.156-.18-.4-.06-.584l.84-1.287c-.157-.304-.288-.62-.393-.946l-1.504-.317c-.215-.045-.37-.235-.37-.456V8.324c0-.22.155-.41.37-.456l1.504-.317c.105-.326.236-.642.392-.946l-.84-1.287c-.12-.185-.095-.428.061-.584L4.734 3.07c.156-.156.4-.18.584-.06l1.287.84c.304-.157.62-.288.946-.393l.317-1.504c.045-.215.235-.37.456-.37h2.352zM9.5 6.24c-1.8 0-3.26 1.46-3.26 3.26 0 1.8 1.46 3.26 3.26 3.26 1.8 0 3.26-1.46 3.26-3.26 0-1.8-1.46-3.26-3.26-3.26zm0 .932c1.286 0 2.328 1.042 2.328 2.328 0 1.286-1.042 2.328-2.328 2.328-1.286 0-2.328-1.042-2.328-2.328 0-1.286 1.042-2.328 2.328-2.328z"/>
</svg>
