<svg xmlns="http://www.w3.org/2000/svg" width="17" height="17" viewBox="0 0 17 17">
    <path fill="#002664" fill-rule="evenodd" d="M5.35 2.27c-.7.654-.7 1.716 0 2.371l1.8 1.778c.6.655 1.7.655 2.3 0l1.8-1.778c.7-.655.7-1.717 0-2.372L9.45.491c-.6-.655-1.7-.655-2.3 0L5.35 2.27zm1.2 1.185l.6-.593.6-.593.6-.593.5.593.6.593.6.593-.6.593-.6.593-.5.593-.6-.593-.6-.593-.6-.593zm-6.1 3.66c-.6.654-.6 1.716 0 2.37l1.8 1.78c.7.654 1.7.654 2.4 0l1.8-1.78c.6-.654.6-1.716 0-2.37l-1.8-1.78c-.7-.655-1.7-.655-2.4 0l-1.8 1.78zM1.65 8.3l.6-.593.6-.593.6-.593.6.593.6.593.6.593-.6.593-.6.592-.6.593-.6-.593-.6-.592-.6-.593zm3.7 6.03c-.7-.655-.7-1.716 0-2.37l1.8-1.78c.6-.655 1.7-.655 2.3 0l1.8 1.78c.7.654.7 1.715 0 2.37l-1.8 1.78c-.6.654-1.7.654-2.3 0l-1.8-1.78zm1.8-1.778l-.6.592.6.593.6.593.6.593.5-.593.6-.593.6-.593-.6-.592-.6-.593-.5-.593-.6.593-.6.593zm4.8-7.217l-1.8 1.78c-.6.654-.6 1.716 0 2.37l1.8 1.78c.7.654 1.7.654 2.4 0l1.8-1.78c.6-.654.6-1.716 0-2.37l-1.8-1.78c-.7-.655-1.7-.655-2.4 0zm-.6 2.965l.6-.593.6-.593.6-.593.6.593.6.593.6.593-.6.593-.6.592-.6.593-.6-.593-.6-.592-.6-.593z"/>
</svg>
