<svg xmlns="http://www.w3.org/2000/svg" xmlns:xlink="http://www.w3.org/1999/xlink" width="13" height="15" viewBox="0 0 13 15">
    <defs>
        <path id="prefix__a" d="M0 0L11.741 0 11.741 13.353 0 13.353z"/>
    </defs>
    <g fill="none" fill-rule="evenodd" transform="translate(.1 .325)">
        <mask id="prefix__b" fill="#fff">
            <use xlink:href="#prefix__a"/>
        </mask>
        <path fill="#8092B1" d="M6.258 0C4.101 0 2.351 1.75 2.351 3.908c0 2.159 1.75 3.907 3.907 3.907 2.159 0 3.907-1.748 3.907-3.907S8.417 0 6.258 0M-.775 13.654v-1.15c0-.79.6-1.676 1.332-1.97 3.658-1.471 7.745-1.471 11.402 0 .733.294 1.333 1.18 1.333 1.97v1.15c0 1.295-1.05 2.344-2.344 2.344H1.57c-1.295 0-2.345-1.049-2.345-2.344" mask="url(#prefix__b)"/>
    </g>
</svg>
