<svg xmlns="http://www.w3.org/2000/svg" xmlns:xlink="http://www.w3.org/1999/xlink" width="19" height="19" viewBox="0 0 19 19">
    <defs>
        <path id="prefix__a" d="M0 0L11.994 0 11.994 13.641 0 13.641z"/>
    </defs>
    <g fill="none" fill-rule="evenodd" transform="translate(3.167 2.375)">
        <mask id="prefix__b" fill="#fff">
            <use xlink:href="#prefix__a"/>
        </mask>
        <path fill="#FFF" d="M6.393 0C4.189 0 2.402 1.787 2.402 3.992s1.787 3.991 3.991 3.991c2.205 0 3.991-1.786 3.991-3.99C10.384 1.786 8.598 0 6.393 0M-.792 13.948v-1.175c0-.807.613-1.712 1.361-2.013 3.737-1.502 7.911-1.502 11.648 0 .748.301 1.36 1.206 1.36 2.013v1.175c0 1.323-1.072 2.394-2.393 2.394h-9.58c-1.323 0-2.396-1.071-2.396-2.394" mask="url(#prefix__b)"/>
    </g>
</svg>
