<svg xmlns="http://www.w3.org/2000/svg" width="16" height="16" viewBox="0 0 16 16">
    <path fill="#FFF" fill-rule="evenodd" d="M8.996 9.042c-1.441 1.449-3.784 1.449-5.224 0-1.441-1.45-1.441-3.807 0-5.257 1.44-1.45 3.783-1.45 5.224 0 1.44 1.45 1.44 3.807 0 5.257m1.895-7.164C8.086-.944 3.317-.586 1.01 2.954c-1.374 2.109-1.343 4.938.067 7.022 1.956 2.892 5.584 3.58 8.342 2.077l3.82 3.656c.414.395 1.067.387 1.47-.019l.98-.987c.412-.412.413-1.084.002-1.498l-3.706-3.736c1.312-2.432.947-5.534-1.095-7.59"/>
</svg>
